<svg width="16" height="16" viewBox="0 0 16 16" fill="none" xmlns="http://www.w3.org/2000/svg">
<path d="M11.998 5.18555C11.5826 4.9721 11.1125 4.84967 10.6133 4.84961C8.93585 4.84961 7.57541 6.20933 7.5752 7.88672C7.5752 9.56428 8.93572 10.9248 10.6133 10.9248C10.7966 10.9248 10.976 10.9071 11.1504 10.876L10.2764 12H8.77734L5.94434 7.66113L3.03027 12H1V7H3.99707V4H7V1H12L11.998 5.18555Z" fill="white"/>
<path d="M6.98535 12H6.9834L5.9248 10.3789L5.92676 10.3779L6.98535 12Z" fill="white"/>
<path d="M11.9971 8.5498C11.9889 8.56664 11.9804 8.58312 11.9717 8.59961C11.9813 8.58131 11.9882 8.5617 11.9971 8.54297V8.5498Z" fill="white"/>
<path d="M11.4668 6.60938C11.6943 6.76177 11.8784 6.97301 11.998 7.22168V7.22754C11.8787 6.97699 11.6954 6.76281 11.4668 6.60938Z" fill="white"/>
<path d="M10.7705 6.35742C10.9235 6.373 11.0697 6.41162 11.2061 6.46875C11.0234 6.39203 10.8228 6.34979 10.6123 6.34961L10.7705 6.35742Z" fill="white"/>
<path d="M3 6H1V4H3V6Z" fill="white"/>
<path d="M6 3H4V1H6V3Z" fill="white"/>
<path d="M2.42188 2.42188H1V1H2.42188V2.42188Z" fill="white"/>
<path d="M12.7984 11.1996L9.99844 14.7996L10.7259 15.9997H15.9984L12.7984 11.1996Z" fill="white"/>
<path d="M5.92483 10.3777L2.14844 15.999L9.5945 15.9991L5.92483 10.3777Z" fill="white"/>
<path d="M12.1484 7.88711C12.1484 8.73625 11.4601 9.42461 10.6109 9.42461C9.7618 9.42461 9.07344 8.73625 9.07344 7.88711C9.07344 7.03797 9.7618 6.34961 10.6109 6.34961C11.4601 6.34961 12.1484 7.03797 12.1484 7.88711Z" fill="white"/>
</svg>
