<svg width="16" height="16" viewBox="0 0 16 16" fill="none" xmlns="http://www.w3.org/2000/svg">
<path d="M11.999 5H5V12H1V7H3.99707V4H7V1H12L11.999 5Z" fill="white"/>
<path d="M3 6H1V4H3V6Z" fill="white"/>
<path d="M6 3H4V1H6V3Z" fill="white"/>
<path d="M2.42188 2.42188H1V1H2.42188V2.42188Z" fill="white"/>
<path fill-rule="evenodd" clip-rule="evenodd" d="M16 6L6 6L6 15L16 15L16 6ZM15 7L15 8L14 8L14 7L15 7ZM7 8L7 7L8 7L8 8L7 8ZM7 10L7 9L8 9L8 10L7 10ZM9 10L9 7L13 7L13 10L9 10ZM14 10L14 9L15 9L15 10L14 10ZM15 11L15 12L14 12L14 11L15 11ZM7 12L7 11.001L8 11.001L8 12L7 12ZM7 14L7 13L8 13L8 14L7 14ZM9 13.9999L9 11.0009L13 11L13 13.999L9 13.9999ZM14 14L14 13L15 13L15 14L14 14Z" fill="white"/>
</svg>
