<svg width="17" height="16" viewBox="0 0 17 16" fill="none" xmlns="http://www.w3.org/2000/svg">
<path d="M11.999 7L9.00787 5.25487C7.67455 4.47698 6 5.43871 6 6.98236V12H1V7H3.99707V4H7V1H12L11.999 7Z" fill="white"/>
<path d="M3 6H1V4H3V6Z" fill="white"/>
<path d="M6 3H4V1H6V3Z" fill="white"/>
<path d="M2.42188 2.42188H1V1H2.42188V2.42188Z" fill="white"/>
<path d="M8.56021 15.7674L15.8354 11.846C15.8943 11.8123 15.9434 11.7636 15.9775 11.7048C16.0115 11.6461 16.0295 11.5793 16.0295 11.5114C16.0295 11.4435 16.0115 11.3768 15.9775 11.318C15.9434 11.2592 15.8943 11.2105 15.8354 11.1768L8.56021 7.25546C8.50239 7.22375 8.43735 7.20771 8.37141 7.20893C8.30547 7.21014 8.24099 7.22857 8.18438 7.26239C8.12776 7.29621 8.08083 7.34424 8.0485 7.40173C8.01618 7.45921 7.9995 7.52414 8.00001 7.59009V15.4327C7.9995 15.4987 8.01618 15.5636 8.0485 15.6211C8.08083 15.6786 8.12776 15.7266 8.18438 15.7604C8.24099 15.7943 8.30547 15.8127 8.37141 15.8139C8.43735 15.8151 8.50239 15.7991 8.56021 15.7674V15.7674Z" fill="white"/>
</svg>
