<svg width="16" height="16" viewBox="0 0 16 16" fill="none" xmlns="http://www.w3.org/2000/svg">
<path d="M11.998 8.30762C11.6688 8.16786 11.3151 8.09961 10.9609 8.09961H6.6416C5.9772 8.09964 5.31212 8.33435 4.81348 8.8457C4.31823 9.35363 4.10162 10.0164 4.10156 10.666V12H1V7H3.99707V4H7V1H12L11.998 8.30762Z" fill="white"/>
<path d="M3 6H1V4H3V6Z" fill="white"/>
<path d="M6 3H4V1H6V3Z" fill="white"/>
<path d="M2.42188 2.42188H1V1H2.42188V2.42188Z" fill="white"/>
<path d="M10.9614 15.9996H6.64172C6.01763 15.9996 5.60156 15.5729 5.60156 14.9329V10.6663C5.60156 10.0263 6.01763 9.59961 6.64172 9.59961L10.9614 9.59961C11.5855 9.59961 12.0016 10.0263 12.0016 10.6663V14.9329C12.0016 15.5729 11.5855 15.9996 10.9614 15.9996Z" fill="white"/>
<path d="M12.8016 12.3729V13.2262L16.0016 15.5729V10.0262L12.8016 12.3729Z" fill="white"/>
</svg>
