<svg width="16" height="16" viewBox="0 0 16 16" fill="none" xmlns="http://www.w3.org/2000/svg">
<path d="M11.999 4.42969C11.3495 4.79161 10.8639 5.41244 10.6797 6.15234L9.71191 5.68945C9.23899 5.43422 8.74394 5.45191 8.35352 5.59375C7.98483 5.72776 7.7229 5.9607 7.58203 6.10156L7.55762 6.12598L7.53418 6.15137L6.06152 7.79785L6.00195 7.86426L5.95312 7.93848C5.72865 8.27519 5.6123 8.66859 5.6123 9.05469C5.61235 9.4289 5.72631 9.91362 6.1084 10.2959L6.19629 10.3838L6.2998 10.4521C6.6361 10.6761 7.02905 10.792 7.41504 10.792C7.4273 10.792 7.43965 10.7903 7.45215 10.79L7.41602 10.9707L6.77344 12H1V7H3.99707V4H7V1H12L11.999 4.42969Z" fill="white"/>
<path d="M3 6H1V4H3V6Z" fill="white"/>
<path d="M6 3H4V1H6V3Z" fill="white"/>
<path d="M2.42188 2.42188H1V1H2.42188V2.42188Z" fill="white"/>
<path opacity="0.5" d="M15.4011 10.453H13.5808L12.7139 8.89267C12.7139 8.89267 12.8873 9.49946 12.7139 9.84619L12.3672 10.453L12.8006 11.2331C12.8873 11.4065 13.0607 11.4932 13.4074 11.4932H15.4878C15.7478 11.4932 16.0079 11.2331 16.0079 10.9731C15.9212 10.713 15.7478 10.453 15.4011 10.453Z" fill="white"/>
<path opacity="0.5" d="M8.90076 12.6193C8.64071 12.446 8.38066 12.1859 8.29398 11.9259L7.42714 13.3128H5.5201C5.26005 13.3128 5 13.5729 5 13.8329C5 14.093 5.26005 14.353 5.5201 14.353H7.68719C7.86056 14.353 8.12061 14.2663 8.20729 14.093L8.98745 12.706L8.90076 12.6193Z" fill="white"/>
<path fill-rule="evenodd" clip-rule="evenodd" d="M7.77737 9.41265L8.99094 8.02571L10.2045 8.63249L8.6442 11.233C8.55752 11.6664 8.73089 12.0998 9.1643 12.3599L9.41286 12.5062L11.5048 13.7468V15.4805C11.5048 15.7405 11.7648 16.0006 12.0249 16.0006C12.2849 16.0006 12.545 15.7405 12.545 15.4805V13.4001C12.545 13.2267 12.4583 13.0534 12.3716 12.9667C12.3716 12.9667 11.1192 12.1544 10.9301 12.0283L12.1115 10.0194L12.4583 9.41265C12.6316 9.15259 12.545 8.71918 12.2849 8.45913L11.4181 7.93902C10.6832 7.57157 9.92757 7.17718 9.1643 6.81214C8.90425 6.63877 8.6442 6.81214 8.47083 6.9855L6.99721 8.63249C6.82385 8.89254 6.82385 9.23928 6.99721 9.41265C7.25726 9.58601 7.604 9.58601 7.77737 9.41265Z" fill="white"/>
<path d="M13.3252 8.28522C14.139 8.28522 14.7988 7.62546 14.7988 6.8116C14.7988 5.99775 14.139 5.33798 13.3252 5.33798C12.5113 5.33798 11.8516 5.99775 11.8516 6.8116C11.8516 7.62546 12.5113 8.28522 13.3252 8.28522Z" fill="white"/>
</svg>
